<?xml version="1.0" encoding="iso-8859-1"?>
<!-- Generator: Adobe Illustrator 19.0.0, SVG Export Plug-In . SVG Version: 6.00 Build 0)  -->
<svg version="1.1" id="Layer_1" xmlns="http://www.w3.org/2000/svg" xmlns:xlink="http://www.w3.org/1999/xlink" x="0px" y="0px"
	 viewBox="0 0 512 512" style="enable-background:new 0 0 512 512;" xml:space="preserve">
<g>
	<g>
		<path d="M444.218,425.614L415.804,85.962c0.005-0.113,0.017-0.223,0.017-0.337V45.66c0-5.843-2.274-11.334-6.405-15.464
			L385.622,6.403c-8.526-8.525-22.398-8.526-30.922-0.004l-17.912,17.904c-2.58,2.575-6.772,2.574-9.348-0.001L309.541,6.403
			c-8.525-8.525-22.397-8.526-30.922-0.004l-17.911,17.903c-2.581,2.575-6.772,2.575-9.349-0.001L233.46,6.403
			c-8.526-8.525-22.398-8.526-30.922-0.004l-17.912,17.904c-2.577,2.575-6.772,2.574-9.348-0.001L157.382,6.405
			C153.251,2.274,147.759,0,141.918,0c-5.84,0-11.333,2.274-15.463,6.405l-23.791,23.791c-4.132,4.131-6.406,9.621-6.406,15.464
			v39.555l-8.001,95.64c-0.352,4.199,2.768,7.887,6.966,8.239c4.193,0.353,7.887-2.768,8.238-6.966l3.201-38.265h186.576
			c4.214,0,7.629-3.416,7.629-7.629c0-4.213-3.415-7.629-7.629-7.629h-185.3l2.957-35.35h290.208l2.957,35.35h-51.584
			c-4.214,0-7.629,3.416-7.629,7.629c0,4.213,3.415,7.629,7.629,7.629h52.86l23.676,283.024
			c1.522,18.185-4.444,35.597-16.799,49.028c-12.354,13.431-29.208,20.828-47.457,20.828H147.243
			c-18.249,0-35.104-7.397-47.457-20.828c-12.354-13.431-18.321-30.843-16.8-49.029l11.398-136.249
			c0.352-4.199-2.768-7.887-6.966-8.238c-4.188-0.355-7.887,2.768-8.238,6.966l-11.397,136.25
			c-1.854,22.163,5.717,44.261,20.774,60.629C103.613,502.612,125.003,512,147.243,512h217.516c22.24,0,43.631-9.387,58.687-25.756
			C438.502,469.875,446.072,447.776,444.218,425.614z M400.563,54.401h-54.609c-4.214,0-7.629,3.416-7.629,7.629
			s3.415,7.629,7.629,7.629h54.609v8.339H111.515V45.66c0-1.766,0.688-3.427,1.937-4.675l23.792-23.791
			c1.249-1.249,2.908-1.937,4.674-1.937c1.766,0,3.426,0.688,4.675,1.937l17.897,17.897c8.526,8.524,22.399,8.524,30.921,0.003
			l17.912-17.904c2.578-2.576,6.77-2.576,9.349,0.001l17.898,17.898c8.525,8.525,22.397,8.526,30.922,0.004l17.912-17.903
			c2.578-2.576,6.771-2.576,9.348,0.001L316.65,35.09c8.524,8.524,22.396,8.527,30.922,0.004l17.912-17.904
			c2.581-2.577,6.773-2.575,9.348,0.001l23.795,23.794c1.249,1.248,1.936,2.908,1.936,4.675V54.401z"/>
	</g>
</g>
<g>
	<g>
		<path d="M315.399,233.04c-1.954-2.827-5.311-4.17-8.541-3.427c-2.518,0.579-4.174,2.063-5.322,3.959
			c-1.575-10.972-4.281-22.196-9.414-31.519c-13.173-23.93-31.026-36.459-31.78-36.981c-3.112-2.153-7.333-1.701-9.916,1.065
			c-3.611,3.864-88.432,95.224-88.432,145.361c0,51.835,42.171,94.006,94.007,94.006c51.835,0,94.006-42.171,94.006-94.006
			C350.008,292.677,338.363,266.279,315.399,233.04z M256,390.247c-43.422,0-78.75-35.327-78.75-78.749
			c0-34.353,53.504-100.834,79.516-129.698c5.572,4.973,14.662,14.299,21.99,27.611c7.49,13.607,8.816,34.245,9.783,49.315
			c0.834,13.007,1.327,18.923,4.257,22.862c2.008,2.696,5.349,3.931,8.514,3.144c6.463-1.607,7.352-7.39,10.295-26.551
			c0.126-0.82,0.26-1.697,0.402-2.605c18.54,29.493,22.743,46.536,22.743,55.922C334.749,354.92,299.423,390.247,256,390.247z"/>
	</g>
</g>
<g>
	<g>
		<path d="M282.025,287.888c-1.302-1.886-3.284-3.071-5.436-3.355c-0.685-2.692-1.63-5.335-2.962-7.755
			c-5.343-9.707-12.489-14.826-13.286-15.377c-3.112-2.153-7.333-1.701-9.916,1.065c-5.705,6.106-34.167,37.568-34.167,57.312
			c0,21.914,17.828,39.741,39.741,39.741c21.912,0,39.74-17.828,39.74-39.741C295.74,311.676,291.253,301.244,282.025,287.888z
			 M256,344.263c-13.5,0-24.484-10.983-24.484-24.484c0-8.807,13.27-27.619,24.937-41.172c1.265,1.503,2.611,3.355,3.809,5.53
			c2.268,4.122,2.74,11.468,3.052,16.33c0.336,5.231,0.538,8.388,2.522,11.053c1.903,2.558,5.111,3.719,8.166,2.958
			c1.96-0.487,3.312-1.395,4.295-2.712c1.873,4.329,2.187,6.825,2.187,8.012C280.483,333.28,269.5,344.263,256,344.263z"/>
	</g>
</g>
<g>
	<g>
		<path d="M177.016,417.766h-26.632c-7.011,0-12.714,5.703-12.714,12.714v16.684c0,7.011,5.703,12.714,12.714,12.714h26.632
			c7.011,0,12.714-5.703,12.714-12.714V430.48C189.73,423.469,184.027,417.766,177.016,417.766z M174.473,444.622h-21.546v-11.599
			h21.546V444.622z"/>
	</g>
</g>
<g>
	<g>
		<path d="M238.045,417.766h-26.632c-7.011,0-12.714,5.703-12.714,12.714v16.684c0,7.011,5.703,12.714,12.714,12.714h26.632
			c7.011,0,12.714-5.703,12.714-12.714V430.48C250.759,423.469,245.056,417.766,238.045,417.766z M235.502,444.622h-21.546v-11.599
			h21.546V444.622z"/>
	</g>
</g>
<g>
	<g>
		<path d="M299.074,417.766h-26.632c-7.011,0-12.714,5.703-12.714,12.714v16.684c0,7.011,5.703,12.714,12.714,12.714h26.632
			c7.011,0,12.714-5.703,12.714-12.714V430.48C311.788,423.469,306.085,417.766,299.074,417.766z M296.531,444.622h-21.546v-11.599
			h21.546V444.622z"/>
	</g>
</g>
<g>
	<g>
		<path d="M360.103,417.766h-26.632c-7.011,0-12.714,5.703-12.714,12.714v16.684c0,7.011,5.703,12.714,12.714,12.714h26.632
			c7.011,0,12.714-5.703,12.714-12.714V430.48C372.817,423.469,367.114,417.766,360.103,417.766z M357.56,444.622h-21.546v-11.599
			h21.546V444.622z"/>
	</g>
</g>
<g>
</g>
<g>
</g>
<g>
</g>
<g>
</g>
<g>
</g>
<g>
</g>
<g>
</g>
<g>
</g>
<g>
</g>
<g>
</g>
<g>
</g>
<g>
</g>
<g>
</g>
<g>
</g>
<g>
</g>
</svg>
