<?xml version="1.0" encoding="UTF-8" standalone="no"?>
<svg
   xmlns:dc="http://purl.org/dc/elements/1.1/"
   xmlns:cc="http://creativecommons.org/ns#"
   xmlns:rdf="http://www.w3.org/1999/02/22-rdf-syntax-ns#"
   xmlns:svg="http://www.w3.org/2000/svg"
   xmlns="http://www.w3.org/2000/svg"
   xmlns:sodipodi="http://sodipodi.sourceforge.net/DTD/sodipodi-0.dtd"
   xmlns:inkscape="http://www.inkscape.org/namespaces/inkscape"
   id="Layer_1"
   enable-background="new 0 0 512.008 512.008"
   height="512"
   viewBox="0 0 512.008 512.008"
   width="512"
   version="1.1"
   sodipodi:docname="coal.svg"
   inkscape:version="0.92.5 (2060ec1f9f, 2020-04-08)">
  <metadata
     id="metadata6979">
    <rdf:RDF>
      <cc:Work
         rdf:about="">
        <dc:format>image/svg+xml</dc:format>
        <dc:type
           rdf:resource="http://purl.org/dc/dcmitype/StillImage" />
      </cc:Work>
    </rdf:RDF>
  </metadata>
  <defs
     id="defs6977" />
  <sodipodi:namedview
     pagecolor="#ffffff"
     bordercolor="#666666"
     borderopacity="1"
     objecttolerance="10"
     gridtolerance="10"
     guidetolerance="10"
     inkscape:pageopacity="0"
     inkscape:pageshadow="2"
     inkscape:window-width="1680"
     inkscape:window-height="1028"
     id="namedview6975"
     showgrid="false"
     inkscape:zoom="0.4609375"
     inkscape:cx="256"
     inkscape:cy="256"
     inkscape:window-x="1912"
     inkscape:window-y="-8"
     inkscape:window-maximized="1"
     inkscape:current-layer="Layer_1" />
  <path
     d="m512.008 232.315v-98.535h-38.836l-91.594-74.832c-23.025-18.813-54.324-23.264-81.683-11.621l-18.274 7.778c-15.15 6.448-32.469 4.992-46.332-3.896l-13.914-8.921c-31.219-20.017-71.676-16.025-98.38 9.71l-84.862 81.782h-38.133v98.536h36.786l22.387 121.099h-44.173v30h49.72l6.335 34.268h36.506c-2.128 5.38-3.311 11.234-3.311 17.362 0 26.116 21.247 47.362 47.362 47.362s47.362-21.247 47.362-47.362c0-6.128-1.183-11.982-3.311-17.362h120.68c-2.128 5.38-3.311 11.234-3.311 17.362 0 26.116 21.247 47.362 47.362 47.362s47.362-21.247 47.362-47.362c0-6.128-1.183-11.982-3.311-17.362h36.506l6.335-34.268h49.72v-30h-44.174l22.387-121.099h36.789zm-368.195-158.716c16.658-16.054 41.895-18.544 61.369-6.057l13.914 8.921c22.219 14.246 49.984 16.583 74.272 6.245l18.274-7.778c17.067-7.264 36.59-4.486 50.954 7.25l63.158 51.6h-344.388zm-113.813 90.181h452.008v38.536h-452.008zm138.975 271.264c0 9.574-7.789 17.362-17.362 17.362s-17.362-7.789-17.362-17.362 7.789-17.362 17.362-17.362 17.362 7.789 17.362 17.362zm208.783 0c0 9.574-7.789 17.362-17.362 17.362s-17.362-7.789-17.362-17.362 7.789-17.362 17.362-17.362 17.362 7.789 17.362 17.362zm38.232-47.362h-319.972l-28.723-155.367h377.418z"
     id="path6972"
     style="fill:#d8ffc9;fill-opacity:1" />
</svg>
