<svg width="160" height="160" xmlns="http://www.w3.org/2000/svg">
 <!-- Created with Method Draw - http://github.com/duopixel/Method-Draw/ -->

 <g>
  <title>background</title>
  <rect fill="none" id="canvas_background" height="162" width="162" y="-1" x="-1"/>
  <g display="none" overflow="visible" y="0" x="0" height="100%" width="100%" id="canvasGrid">
   <rect fill="url(#gridpattern)" stroke-width="0" y="2" x="2" height="400" width="580"/>
  </g>
 </g>
 <g>
  <title>Layer 1</title>
  <g stroke="null" id="svg_6">
   <path stroke="null" id="svg_5" d="m132.147211,140.227404l-27.363777,0l0,-4.209812c0,-6.963818 -5.665617,-12.629436 -12.629436,-12.629436l-10.52453,0l0,-18.944154l50.517743,0c2.943974,0 4.979681,-2.951341 3.936174,-5.702716l-23.153965,-61.042272c-0.620158,-1.635249 -2.18726,-2.716907 -3.936174,-2.716907l-79.986426,0c-1.748914,0 -3.316016,1.081395 -3.936174,2.716907l-23.153965,61.042272c-1.044033,2.752691 0.993252,5.702716 3.936174,5.702716l50.517743,0l0,18.944154l-10.52453,0c-6.963818,0 -12.629436,5.665617 -12.629436,12.629436l0,4.209812l-27.363777,0c-2.324869,0 -4.209812,1.884943 -4.209812,4.209812s1.884943,4.209812 4.209812,4.209812l126.294357,0c2.324869,0 4.209812,-1.884943 4.209812,-4.209812s-1.884943,-4.209812 -4.209812,-4.209812zm-79.366005,-44.203025l2.032287,-14.734342l28.372817,0l2.032287,14.734342c-3.553607,0 -28.935879,0 -32.43739,0zm-27.256164,-35.783401l23.692295,0l-1.742073,12.629436l-26.740725,0l4.790503,-12.629436zm32.191905,0l22.56617,0l1.742073,12.629436l-26.050053,0l1.74181,-12.629436zm20.243407,-16.839248l1.161382,8.419624l-20.243407,0l1.161382,-8.419624l17.920643,0zm39.304909,29.468683l-26.740988,0l-1.742073,-12.629436l23.692295,0l4.790766,12.629436zm-23.54732,23.153965l-2.032287,-14.734342l28.773275,0l5.588788,14.734342l-32.329777,0zm15.563148,-44.203025l-21.660008,0l-1.161382,-8.419624l19.627722,0l3.193669,8.419624zm-77.368712,-8.419624l19.627722,0l-1.161382,8.419624l-21.660008,0l3.193669,-8.419624zm-14.371508,37.888307l28.773275,0l-2.032287,14.734342l-32.329777,0l5.588788,-14.734342zm47.24935,23.153965l8.419624,0l0,18.944154l-8.419624,0l0,-18.944154zm-23.153965,35.783401l0,-4.209812c0,-2.321185 1.888627,-4.209812 4.209812,-4.209812l46.307931,0c2.321185,0 4.209812,1.888627 4.209812,4.209812l0,4.209812l-54.727555,0z"/>
  </g>
  <g stroke="null" id="svg_12">
   <path stroke="null" id="svg_11" d="m151.207338,14.698257l0,2.074169l-8.448674,0l0,-2.074169l8.448674,0zm-3.542992,4.520652l-4.905681,0l0,2.074169l4.905681,0l0,-2.074169zm-4.905681,6.594821l8.448674,0l0,-2.074169l-8.448674,0l0,2.074169zm4.905681,2.44752l-4.905681,0l0,2.074169l4.905681,0l0,-2.074169zm-4.905681,6.594821l8.448674,0l0,-2.074169l-8.448674,0l0,2.074169zm1.316903,11.818617c0,5.790044 -4.951468,10.500482 -11.037783,10.500482s-11.037783,-4.710439 -11.037783,-10.500482c0,-3.752172 2.071288,-7.162107 5.450757,-9.048564l0,-23.805242c0,-2.930801 2.506258,-5.315059 5.587026,-5.315059s5.587026,2.384258 5.587026,5.315059l0,23.805242c3.379469,1.884383 5.450757,5.295354 5.450757,9.048564zm-2.180303,0c0,-3.18385 -1.859798,-6.06176 -4.854444,-7.508493l-0.596313,-0.28831l0,-25.055966c0,-1.787934 -1.528392,-3.24089 -3.406723,-3.24089s-3.406723,1.452956 -3.406723,3.24089l0,25.055966l-0.596313,0.28831c-2.994646,1.44777 -4.854444,4.32568 -4.854444,7.508493c0,4.646139 3.973602,8.426313 8.85748,8.426313s8.85748,-3.780174 8.85748,-8.426313zm-1.816192,0c0,3.693059 -3.158169,6.697493 -7.041288,6.697493c-3.882029,0 -7.040198,-3.004434 -7.040198,-6.697493c0,-3.02725 2.149779,-5.685298 5.228366,-6.464149l0.404446,-0.102671l0,-23.054392l2.815861,0l0,23.053355l0.404446,0.103708c3.079678,0.778851 5.228366,3.437936 5.228366,6.464149zm-6.69244,-4.46465c-0.167883,-0.709366 -0.917908,-1.176054 -1.682104,-1.01012c-2.668691,0.574545 -4.53285,2.794943 -4.53285,5.4001c0,0.737367 0.631198,1.337839 1.406295,1.337839s1.406295,-0.600472 1.406295,-1.337839c0,-1.324357 0.983317,-2.498337 2.340555,-2.789758c0.754385,-0.164896 1.231871,-0.882559 1.061808,-1.600222z"/>
  </g>
 </g>
</svg>