<?xml version="1.0" encoding="UTF-8" standalone="no"?>
<!-- Generator: Adobe Illustrator 19.0.0, SVG Export Plug-In . SVG Version: 6.00 Build 0)  -->

<svg
   xmlns:dc="http://purl.org/dc/elements/1.1/"
   xmlns:cc="http://creativecommons.org/ns#"
   xmlns:rdf="http://www.w3.org/1999/02/22-rdf-syntax-ns#"
   xmlns:svg="http://www.w3.org/2000/svg"
   xmlns="http://www.w3.org/2000/svg"
   xmlns:sodipodi="http://sodipodi.sourceforge.net/DTD/sodipodi-0.dtd"
   xmlns:inkscape="http://www.inkscape.org/namespaces/inkscape"
   version="1.1"
   id="Layer_1"
   x="0px"
   y="0px"
   viewBox="0 0 512 512"
   style="enable-background:new 0 0 512 512;"
   xml:space="preserve"
   sodipodi:docname="sun.svg"
   inkscape:version="0.92.5 (2060ec1f9f, 2020-04-08)"><metadata
   id="metadata2732"><rdf:RDF><cc:Work
       rdf:about=""><dc:format>image/svg+xml</dc:format><dc:type
         rdf:resource="http://purl.org/dc/dcmitype/StillImage" /></cc:Work></rdf:RDF></metadata><defs
   id="defs2730" /><sodipodi:namedview
   pagecolor="#ffffff"
   bordercolor="#666666"
   borderopacity="1"
   objecttolerance="10"
   gridtolerance="10"
   guidetolerance="10"
   inkscape:pageopacity="0"
   inkscape:pageshadow="2"
   inkscape:window-width="1680"
   inkscape:window-height="1028"
   id="namedview2728"
   showgrid="false"
   inkscape:zoom="0.4609375"
   inkscape:cx="256"
   inkscape:cy="256"
   inkscape:window-x="1912"
   inkscape:window-y="-8"
   inkscape:window-maximized="1"
   inkscape:current-layer="Layer_1" />
<g
   id="g2617"
   style="fill:#d8ffc9;fill-opacity:1">
	<g
   id="g2615"
   style="fill:#d8ffc9;fill-opacity:1">
		<path
   d="M50.087,239.304H16.696C7.475,239.304,0,246.78,0,256s7.475,16.696,16.696,16.696h33.391    c9.22,0,16.696-7.475,16.696-16.696S59.307,239.304,50.087,239.304z"
   id="path2613"
   style="fill:#d8ffc9;fill-opacity:1" />
	</g>
</g>
<g
   id="g2623"
   style="fill:#d8ffc9;fill-opacity:1">
	<g
   id="g2621"
   style="fill:#d8ffc9;fill-opacity:1">
		<path
   d="M495.304,239.304h-33.391c-9.22,0-16.696,7.475-16.696,16.696s7.475,16.696,16.696,16.696h33.391    c9.22,0,16.696-7.475,16.696-16.696S504.525,239.304,495.304,239.304z"
   id="path2619"
   style="fill:#d8ffc9;fill-opacity:1" />
	</g>
</g>
<g
   id="g2629"
   style="fill:#d8ffc9;fill-opacity:1">
	<g
   id="g2627"
   style="fill:#d8ffc9;fill-opacity:1">
		<path
   d="M256,445.217c-9.22,0-16.696,7.475-16.696,16.696v33.391c0,9.22,7.475,16.696,16.696,16.696s16.696-7.475,16.696-16.696    v-33.391C272.696,452.693,265.22,445.217,256,445.217z"
   id="path2625"
   style="fill:#d8ffc9;fill-opacity:1" />
	</g>
</g>
<g
   id="g2635"
   style="fill:#d8ffc9;fill-opacity:1">
	<g
   id="g2633"
   style="fill:#d8ffc9;fill-opacity:1">
		<path
   d="M256,0c-9.22,0-16.696,7.475-16.696,16.696v33.391c0,9.22,7.475,16.696,16.696,16.696s16.696-7.475,16.696-16.696V16.696    C272.696,7.475,265.22,0,256,0z"
   id="path2631"
   style="fill:#d8ffc9;fill-opacity:1" />
	</g>
</g>
<g
   id="g2641"
   style="fill:#d8ffc9;fill-opacity:1">
	<g
   id="g2639"
   style="fill:#d8ffc9;fill-opacity:1">
		<path
   d="M390.111,454.895l-16.696-28.917c-4.61-7.985-14.821-10.722-22.806-6.111c-7.985,4.61-10.721,14.821-6.111,22.806    l16.696,28.917c4.612,7.989,14.826,10.719,22.806,6.111C391.985,473.091,394.721,462.88,390.111,454.895z"
   id="path2637"
   style="fill:#d8ffc9;fill-opacity:1" />
	</g>
</g>
<g
   id="g2647"
   style="fill:#d8ffc9;fill-opacity:1">
	<g
   id="g2645"
   style="fill:#d8ffc9;fill-opacity:1">
		<path
   d="M167.502,69.326l-16.696-28.917c-4.61-7.985-14.821-10.722-22.806-6.111c-7.985,4.61-10.721,14.821-6.111,22.806    l16.696,28.917c4.612,7.989,14.826,10.72,22.806,6.111C169.376,87.522,172.112,77.311,167.502,69.326z"
   id="path2643"
   style="fill:#d8ffc9;fill-opacity:1" />
	</g>
</g>
<g
   id="g2653"
   style="fill:#d8ffc9;fill-opacity:1">
	<g
   id="g2651"
   style="fill:#d8ffc9;fill-opacity:1">
		<path
   d="M471.591,361.194l-28.917-16.696c-7.986-4.612-18.196-1.875-22.806,6.111c-4.61,7.985-1.874,18.196,6.111,22.806    l28.917,16.696c7.981,4.609,18.194,1.878,22.806-6.111C482.312,376.015,479.576,365.804,471.591,361.194z"
   id="path2649"
   style="fill:#d8ffc9;fill-opacity:1" />
	</g>
</g>
<g
   id="g2659"
   style="fill:#d8ffc9;fill-opacity:1">
	<g
   id="g2657"
   style="fill:#d8ffc9;fill-opacity:1">
		<path
   d="M86.022,138.585l-28.917-16.696c-7.986-4.612-18.197-1.874-22.806,6.111c-4.61,7.985-1.874,18.196,6.111,22.806    l28.917,16.696c7.981,4.609,18.194,1.878,22.806-6.111C96.742,153.406,94.007,143.195,86.022,138.585z"
   id="path2655"
   style="fill:#d8ffc9;fill-opacity:1" />
	</g>
</g>
<g
   id="g2665"
   style="fill:#d8ffc9;fill-opacity:1">
	<g
   id="g2663"
   style="fill:#d8ffc9;fill-opacity:1">
		<path
   d="M477.702,128c-4.61-7.985-14.82-10.722-22.806-6.111l-28.917,16.696c-7.985,4.61-10.721,14.821-6.111,22.806    c4.612,7.989,14.826,10.719,22.806,6.111l28.917-16.696C479.576,146.196,482.312,135.985,477.702,128z"
   id="path2661"
   style="fill:#d8ffc9;fill-opacity:1" />
	</g>
</g>
<g
   id="g2671"
   style="fill:#d8ffc9;fill-opacity:1">
	<g
   id="g2669"
   style="fill:#d8ffc9;fill-opacity:1">
		<path
   d="M92.132,350.609c-4.609-7.985-14.821-10.721-22.806-6.111l-28.917,16.696c-7.985,4.61-10.721,14.821-6.111,22.806    c4.612,7.989,14.826,10.719,22.806,6.111l28.917-16.696C94.007,368.805,96.742,358.594,92.132,350.609z"
   id="path2667"
   style="fill:#d8ffc9;fill-opacity:1" />
	</g>
</g>
<g
   id="g2677"
   style="fill:#d8ffc9;fill-opacity:1">
	<g
   id="g2675"
   style="fill:#d8ffc9;fill-opacity:1">
		<path
   d="M384,34.298c-7.986-4.612-18.196-1.874-22.806,6.111l-16.696,28.917c-4.61,7.985-1.874,18.196,6.111,22.806    c7.981,4.609,18.194,1.879,22.806-6.111l16.696-28.917C394.721,49.12,391.985,38.909,384,34.298z"
   id="path2673"
   style="fill:#d8ffc9;fill-opacity:1" />
	</g>
</g>
<g
   id="g2683"
   style="fill:#d8ffc9;fill-opacity:1">
	<g
   id="g2681"
   style="fill:#d8ffc9;fill-opacity:1">
		<path
   d="M161.391,419.868c-7.985-4.612-18.197-1.875-22.806,6.111l-16.696,28.917c-4.61,7.985-1.874,18.196,6.111,22.806    c7.981,4.609,18.194,1.878,22.806-6.111l16.696-28.917C172.112,434.689,169.376,424.478,161.391,419.868z"
   id="path2679"
   style="fill:#d8ffc9;fill-opacity:1" />
	</g>
</g>
<g
   id="g2689"
   style="fill:#d8ffc9;fill-opacity:1">
	<g
   id="g2687"
   style="fill:#d8ffc9;fill-opacity:1">
		<path
   d="M256,100.174c-85.922,0-155.826,69.904-155.826,155.826S170.078,411.826,256,411.826S411.826,341.922,411.826,256    S341.923,100.174,256,100.174z M256,378.435c-67.51,0-122.435-54.924-122.435-122.435S188.49,133.565,256,133.565    S378.435,188.49,378.435,256S323.511,378.435,256,378.435z"
   id="path2685"
   style="fill:#d8ffc9;fill-opacity:1" />
	</g>
</g>
<g
   id="g2695"
   style="fill:#d8ffc9;fill-opacity:1">
	<g
   id="g2693"
   style="fill:#d8ffc9;fill-opacity:1">
		<path
   d="M256,166.957c-49.099,0-89.043,39.945-89.043,89.043c0,9.22,7.475,16.696,16.696,16.696    c9.22,0,16.696-7.475,16.696-16.696c0-30.687,24.966-55.652,55.652-55.652c9.22,0,16.696-7.475,16.696-16.696    C272.696,174.432,265.22,166.957,256,166.957z"
   id="path2691"
   style="fill:#d8ffc9;fill-opacity:1" />
	</g>
</g>
<g
   id="g2697">
</g>
<g
   id="g2699">
</g>
<g
   id="g2701">
</g>
<g
   id="g2703">
</g>
<g
   id="g2705">
</g>
<g
   id="g2707">
</g>
<g
   id="g2709">
</g>
<g
   id="g2711">
</g>
<g
   id="g2713">
</g>
<g
   id="g2715">
</g>
<g
   id="g2717">
</g>
<g
   id="g2719">
</g>
<g
   id="g2721">
</g>
<g
   id="g2723">
</g>
<g
   id="g2725">
</g>
</svg>