<?xml version="1.0" encoding="UTF-8" standalone="no"?>
<svg
   xmlns:dc="http://purl.org/dc/elements/1.1/"
   xmlns:cc="http://creativecommons.org/ns#"
   xmlns:rdf="http://www.w3.org/1999/02/22-rdf-syntax-ns#"
   xmlns:svg="http://www.w3.org/2000/svg"
   xmlns="http://www.w3.org/2000/svg"
   xmlns:sodipodi="http://sodipodi.sourceforge.net/DTD/sodipodi-0.dtd"
   xmlns:inkscape="http://www.inkscape.org/namespaces/inkscape"
   id="Layer_1"
   enable-background="new 0 0 56.69 56.69"
   height="512"
   viewBox="0 0 56.69 56.69"
   width="512"
   version="1.1"
   sodipodi:docname="temperature.svg"
   inkscape:version="0.92.5 (2060ec1f9f, 2020-04-08)">
  <metadata
     id="metadata3943">
    <rdf:RDF>
      <cc:Work
         rdf:about="">
        <dc:format>image/svg+xml</dc:format>
        <dc:type
           rdf:resource="http://purl.org/dc/dcmitype/StillImage" />
      </cc:Work>
    </rdf:RDF>
  </metadata>
  <defs
     id="defs3941" />
  <sodipodi:namedview
     pagecolor="#ffffff"
     bordercolor="#666666"
     borderopacity="1"
     objecttolerance="10"
     gridtolerance="10"
     guidetolerance="10"
     inkscape:pageopacity="0"
     inkscape:pageshadow="2"
     inkscape:window-width="1680"
     inkscape:window-height="1028"
     id="namedview3939"
     showgrid="false"
     inkscape:zoom="0.4609375"
     inkscape:cx="-46.644068"
     inkscape:cy="256"
     inkscape:window-x="1912"
     inkscape:window-y="-8"
     inkscape:window-maximized="1"
     inkscape:current-layer="Layer_1" />
  <path
     d="m41.741 10.852v2h-7.75v-2zm-3.25 4.359h-4.5v2h4.5zm-4.5 6.359h7.75v-2h-7.75zm4.5 2.36h-4.5v2h4.5zm-4.5 6.359h7.75v-2h-7.75zm1.208 11.396c0 5.583-4.542 10.125-10.125 10.125s-10.125-4.542-10.125-10.125c0-3.618 1.9-6.906 5-8.725v-22.954c0-2.826 2.299-5.125 5.125-5.125s5.125 2.299 5.125 5.125v22.954c3.1 1.817 5 5.106 5 8.725zm-2 0c0-3.07-1.706-5.845-4.453-7.24l-.547-.278v-24.16c0-1.724-1.402-3.125-3.125-3.125s-3.125 1.401-3.125 3.125v24.16l-.547.278c-2.747 1.396-4.453 4.171-4.453 7.24 0 4.48 3.645 8.125 8.125 8.125s8.125-3.645 8.125-8.125zm-1.666 0c0 3.561-2.897 6.458-6.459 6.458-3.561 0-6.458-2.897-6.458-6.458 0-2.919 1.972-5.482 4.796-6.233l.371-.099v-22.23h2.583v22.229l.371.1c2.825.751 4.796 3.315 4.796 6.233zm-6.139-4.305c-.154-.684-.842-1.134-1.543-.974-2.448.554-4.158 2.695-4.158 5.207 0 .711.579 1.29 1.29 1.29s1.29-.579 1.29-1.29c0-1.277.902-2.409 2.147-2.69.692-.159 1.13-.851.974-1.543z"
     id="path3936"
     style="fill:#d8ffc9;fill-opacity:1" />
</svg>
