<svg id="Layer_1" enable-background="new 0 0 512.008 512.008" height="512" viewBox="0 0 512.008 512.008" width="512" xmlns="http://www.w3.org/2000/svg"><path d="m512.008 232.315v-98.535h-38.836l-91.594-74.832c-23.025-18.813-54.324-23.264-81.683-11.621l-18.274 7.778c-15.15 6.448-32.469 4.992-46.332-3.896l-13.914-8.921c-31.219-20.017-71.676-16.025-98.38 9.71l-84.862 81.782h-38.133v98.536h36.786l22.387 121.099h-44.173v30h49.72l6.335 34.268h36.506c-2.128 5.38-3.311 11.234-3.311 17.362 0 26.116 21.247 47.362 47.362 47.362s47.362-21.247 47.362-47.362c0-6.128-1.183-11.982-3.311-17.362h120.68c-2.128 5.38-3.311 11.234-3.311 17.362 0 26.116 21.247 47.362 47.362 47.362s47.362-21.247 47.362-47.362c0-6.128-1.183-11.982-3.311-17.362h36.506l6.335-34.268h49.72v-30h-44.174l22.387-121.099h36.789zm-368.195-158.716c16.658-16.054 41.895-18.544 61.369-6.057l13.914 8.921c22.219 14.246 49.984 16.583 74.272 6.245l18.274-7.778c17.067-7.264 36.59-4.486 50.954 7.25l63.158 51.6h-344.388zm-113.813 90.181h452.008v38.536h-452.008zm138.975 271.264c0 9.574-7.789 17.362-17.362 17.362s-17.362-7.789-17.362-17.362 7.789-17.362 17.362-17.362 17.362 7.789 17.362 17.362zm208.783 0c0 9.574-7.789 17.362-17.362 17.362s-17.362-7.789-17.362-17.362 7.789-17.362 17.362-17.362 17.362 7.789 17.362 17.362zm38.232-47.362h-319.972l-28.723-155.367h377.418z"/></svg>