<svg width="254" height="254" xmlns="http://www.w3.org/2000/svg">
 <!-- Created with Method Draw - http://github.com/duopixel/Method-Draw/ -->

 <g>
  <title>background</title>
  <rect fill="none" id="canvas_background" height="256" width="256" y="-1" x="-1"/>
  <g display="none" overflow="visible" y="0" x="0" height="100%" width="100%" id="canvasGrid">
   <rect fill="url(#gridpattern)" stroke-width="0" y="0" x="0" height="100%" width="100%"/>
  </g>
 </g>
 <g>
  <title>Layer 1</title>
  <g stroke="null" id="svg_44">
   <g stroke="null" transform="matrix(0.5118982163308136,0,0,0.5118982163308136,-1479.6803339959583,-1247.5455045975923) " id="svg_5">
    <g stroke="null" id="svg_6">
     <path stroke="null" id="svg_7" d="m3304.161687,2606.695279c-0.005,0 -0.011,0 -0.016,0l-400,0c-3.782,-0.004 -6.852,3.058 -6.856,6.84c0,0.005 0,0.011 0,0.016l0,192c-0.004,3.782 3.058,6.852 6.84,6.856c0.005,0 0.011,0 0.016,0l272,0c3.786,0 6.856,-3.07 6.856,-6.856c0,-3.786 -3.07,-6.856 -6.856,-6.856l-265.144,0l0,-178.288l386.288,0l0,17.144c-0.004,3.782 3.058,6.852 6.84,6.856c0.005,0 0.011,0 0.016,0c3.782,0.004 6.852,-3.058 6.856,-6.84c0,-0.005 0,-0.011 0,-0.016l0,-24c0.004,-3.782 -3.058,-6.851 -6.84,-6.856z"/>
    </g>
   </g>
   <g stroke="null" transform="matrix(0.5118982163308136,0,0,0.5118982163308136,-1479.6803339959583,-1247.5455045975923) " id="svg_8">
    <g stroke="null" id="svg_9">
     <path stroke="null" id="svg_10" d="m3257.649687,2574.863279l-320,-72c-1.776,-0.397 -3.637,-0.075 -5.176,0.896c-1.537,0.979 -2.624,2.526 -3.024,4.304l-16,72c-0.822,3.698 1.51,7.362 5.208,8.184c3.698,0.822 7.362,-1.51 8.184,-5.208l14.504,-65.288l313.296,70.488c0.496,0.115 1.003,0.172 1.512,0.168c3.786,-0.007 6.85,-3.082 6.844,-6.868c-0.006,-3.201 -2.226,-5.971 -5.348,-6.676z"/>
    </g>
   </g>
   <g stroke="null" transform="matrix(0.5118982163308136,0,0,0.5118982163308136,-1479.6803339959583,-1247.5455045975923) " id="svg_11">
    <g stroke="null" id="svg_12">
     <path stroke="null" id="svg_13" d="m3218.793687,2535.191279l-192,-80c-3.337,-1.391 -7.182,0.038 -8.8,3.272l-16,32c-1.807,3.342 -0.563,7.517 2.78,9.324c3.342,1.807 7.517,0.563 9.324,-2.78c0.071,-0.131 0.138,-0.265 0.2,-0.401l0,0.016l13.128,-26.272l186.072,77.528c3.504,1.462 7.53,-0.192 8.992,-3.696c1.462,-3.502 -0.192,-7.528 -3.696,-8.991z"/>
    </g>
   </g>
   <g stroke="null" transform="matrix(0.5118982163308136,0,0,0.5118982163308136,-1479.6803339959583,-1247.5455045975923) " id="svg_14">
    <g stroke="null" id="svg_15">
     <path stroke="null" id="svg_16" d="m3223.641687,2638.695279l-63.496,0c-3.786,0 -6.856,3.07 -6.856,6.856c0,3.786 3.07,6.856 6.856,6.856l63.496,0c3.786,0 6.856,-3.07 6.856,-6.856s-3.07,-6.856 -6.856,-6.856z"/>
    </g>
   </g>
   <g stroke="null" transform="matrix(0.5118982163308136,0,0,0.5118982163308136,-1479.6803339959583,-1247.5455045975923) " id="svg_17">
    <g stroke="null" id="svg_18">
     <path stroke="null" id="svg_19" d="m3096.145687,2639.151279c-38.881,0 -70.4,31.519 -70.4,70.4c0.04,38.864 31.536,70.36 70.4,70.4c38.881,0 70.4,-31.519 70.4,-70.4s-31.519,-70.4 -70.4,-70.4zm0,128c-31.812,0 -57.6,-25.788 -57.6,-57.6c0.035,-31.797 25.803,-57.565 57.6,-57.6c31.812,0 57.6,25.788 57.6,57.6c0,31.812 -25.788,57.6 -57.6,57.6z"/>
    </g>
   </g>
   <g stroke="null" transform="matrix(0.5118982163308136,0,0,0.5118982163308136,-1479.6803339959583,-1247.5455045975923) " id="svg_20">
    <g stroke="null" id="svg_21">
     <path stroke="null" id="svg_22" d="m3288.145687,2661.551279c-42.4,0 -88,10.016 -88,32l0,192c0,21.984 45.6,32 88,32c42.4,0 88,-10.016 88,-32l0,-192c0,-21.984 -45.6,-32 -88,-32zm72,223.88c-1.208,4.44 -25.2,16.12 -72,16.12s-70.792,-11.68 -72,-16l0,-12.576c17.024,8.576 45.144,12.576 72,12.576c26.856,0 54.984,-4.04 72,-12.584l0,12.464zm0,-32c-1.208,4.44 -25.2,16.12 -72,16.12s-70.792,-11.68 -72,-16l0,-12.576c17.024,8.576 45.144,12.576 72,12.576c26.856,0 54.984,-4.04 72,-12.584l0,12.464zm0,-32c-1.208,4.44 -25.2,16.12 -72,16.12s-70.792,-11.68 -72,-16l0,-12.576c17.024,8.576 45.144,12.576 72,12.576c26.856,0 54.984,-4.04 72,-12.584l0,12.464zm0,-32c-1.208,4.44 -25.2,16.12 -72,16.12s-70.792,-11.68 -72,-16l0,-12.576c17.024,8.576 45.144,12.576 72,12.576c26.856,0 54.984,-4.04 72,-12.584l0,12.464zm0,-32c-1.208,4.44 -25.2,16.12 -72,16.12s-70.792,-11.68 -72,-16l0,-12.576c17.024,8.536 45.144,12.576 72,12.576c26.856,0 54.984,-4.04 72,-12.584l0,12.464zm0,-32c-1.208,4.44 -25.2,16.12 -72,16.12s-70.792,-11.68 -72,-16l0,-12.576c17.024,8.536 45.144,12.576 72,12.576c26.856,0 54.984,-4.04 72,-12.584l0,12.464zm-72,-15.88c-46.728,0 -70.712,-11.648 -72,-15.856l0,-0.048c1.288,-4.456 25.272,-16.096 72,-16.096c46.4,0 70.4,11.472 72,16c-1.6,4.528 -25.6,16 -72,16z"/>
    </g>
   </g>
   <g stroke="null" transform="matrix(0.5118982163308136,0,0,0.5118982163308136,-1479.6803339959583,-1247.5455045975923) " id="svg_23">
    <g stroke="null" id="svg_24">
     <path stroke="null" id="svg_25" d="m3032.145687,2766.687279l-60.472,0l-28.672,-31.36l0,-52l31.664,-30.92l57.48,0c3.786,0 6.856,-3.07 6.856,-6.856c0,-3.786 -3.07,-6.856 -6.856,-6.856l-60.264,0c-1.792,-0.004 -3.515,0.694 -4.8,1.944l-35.736,34.856c-1.335,1.56 -2.067,3.547 -2.064,5.6l0,56.896c0,1.711 0.639,3.36 1.792,4.624l32.504,35.552c1.299,1.422 3.137,2.233 5.064,2.232l63.504,0c3.786,0 6.856,-3.07 6.856,-6.856c0,-3.786 -3.069,-6.856 -6.856,-6.856z"/>
    </g>
   </g>
   <g stroke="null" transform="matrix(0.5118982163308136,0,0,0.5118982163308136,-1479.6803339959583,-1247.5455045975923) " id="svg_26">
    <g stroke="null" id="svg_27"/>
   </g>
   <g stroke="null" transform="matrix(0.5118982163308136,0,0,0.5118982163308136,-1479.6803339959583,-1247.5455045975923) " id="svg_29"/>
   <g stroke="null" transform="matrix(0.5118982163308136,0,0,0.5118982163308136,-1479.6803339959583,-1247.5455045975923) " id="svg_30"/>
   <g stroke="null" transform="matrix(0.5118982163308136,0,0,0.5118982163308136,-1479.6803339959583,-1247.5455045975923) " id="svg_31"/>
   <g stroke="null" transform="matrix(0.5118982163308136,0,0,0.5118982163308136,-1479.6803339959583,-1247.5455045975923) " id="svg_32"/>
   <g stroke="null" transform="matrix(0.5118982163308136,0,0,0.5118982163308136,-1479.6803339959583,-1247.5455045975923) " id="svg_33"/>
   <g stroke="null" transform="matrix(0.5118982163308136,0,0,0.5118982163308136,-1479.6803339959583,-1247.5455045975923) " id="svg_34"/>
   <g stroke="null" transform="matrix(0.5118982163308136,0,0,0.5118982163308136,-1479.6803339959583,-1247.5455045975923) " id="svg_35"/>
   <g stroke="null" transform="matrix(0.5118982163308136,0,0,0.5118982163308136,-1479.6803339959583,-1247.5455045975923) " id="svg_36"/>
   <g stroke="null" transform="matrix(0.5118982163308136,0,0,0.5118982163308136,-1479.6803339959583,-1247.5455045975923) " id="svg_37"/>
   <g stroke="null" transform="matrix(0.5118982163308136,0,0,0.5118982163308136,-1479.6803339959583,-1247.5455045975923) " id="svg_38"/>
   <g stroke="null" transform="matrix(0.5118982163308136,0,0,0.5118982163308136,-1479.6803339959583,-1247.5455045975923) " id="svg_39"/>
   <g stroke="null" transform="matrix(0.5118982163308136,0,0,0.5118982163308136,-1479.6803339959583,-1247.5455045975923) " id="svg_40"/>
   <g stroke="null" transform="matrix(0.5118982163308136,0,0,0.5118982163308136,-1479.6803339959583,-1247.5455045975923) " id="svg_41"/>
   <g stroke="null" transform="matrix(0.5118982163308136,0,0,0.5118982163308136,-1479.6803339959583,-1247.5455045975923) " id="svg_42"/>
   <g stroke="null" transform="matrix(0.5118982163308136,0,0,0.5118982163308136,-1479.6803339959583,-1247.5455045975923) " id="svg_43"/>
  </g>
  <text font-weight="bold" xml:space="preserve" text-anchor="start" font-family="Helvetica, Arial, sans-serif" font-size="24" id="svg_58" y="150" x="88.5" fill-opacity="null" stroke-opacity="null" stroke-width="0" stroke="null" fill="#000000">Rs.</text>
 </g>
</svg>